<svg width="744" height="365" viewBox="0 0 744 365" fill="none" xmlns="http://www.w3.org/2000/svg">
<rect x="1" y="1" width="742" height="363" rx="1" stroke="#FFE81F" stroke-width="2"/>
<path d="M229.465 122.732H134.465C135.021 123.475 164.152 153.719 221.486 213.465C229.279 224.969 233.176 237.029 233.176 249.832C233.176 267.83 226.867 283.602 214.436 296.961C201.818 310.32 186.789 317 169.348 317H48V242.225H148.01L61.3594 151.863C53.3809 142.215 49.4844 129.969 49.4844 115.311C49.4844 97.127 55.6074 81.3555 68.0391 68.1816C80.4707 54.8223 95.5 48.1426 113.127 48.1426H229.465V122.732Z" fill="white"/>
<path d="M491.807 48.1426L490.879 49.627L408.125 182.479L490.879 315.516L491.807 317H397.178L360.996 258.553L324.629 317H230L230.928 315.516L313.682 182.479L230.928 49.627L230 48.1426H324.629L360.996 106.59L397.178 48.1426H491.807ZM491.77 48.1426H686.594V122.732H566.545V145.184H667.854V219.959H566.545V317H491.77V48.1426Z" fill="white"/>
</svg>
