<svg width="640" height="512" viewBox="0 0 640 512" fill="none" xmlns="http://www.w3.org/2000/svg">
<g clip-path="url(#clip0_418_10)">
<path d="M80 104C80 81.9 62.1 64 40 64C17.9 64 0 81.9 0 104V160V224V325.5C0 351 10.1 375.4 28.1 393.4L128 493.3C140 505.3 156.3 512 173.3 512H240C266.5 512 288 490.5 288 464V385.1C288 355.4 276.2 326.9 255.2 305.9L229.9 280.6L214.7 265.4L182.7 233.4C170.2 220.9 149.9 220.9 137.4 233.4C124.9 245.9 124.9 266.2 137.4 278.7L169.4 310.7L184.6 325.9C195.6 336.9 193.8 355.1 180.9 363.7C171.2 370.2 158.2 368.9 149.9 360.6L98.7 309.5C86.7 297.5 80 281.2 80 264.2V224V144V104ZM560 104V144V224V264.2C560 281.2 553.3 297.5 541.3 309.5L490.2 360.6C481.9 368.9 468.9 370.2 459.2 363.7C446.3 355.1 444.5 336.8 455.5 325.9L470.7 310.7L502.7 278.7C515.2 266.2 515.2 245.9 502.7 233.4C490.2 220.9 469.9 220.9 457.4 233.4L425.4 265.4L410.2 280.6L384.9 305.9C363.9 326.9 352.1 355.4 352.1 385.1V464C352.1 490.5 373.6 512 400.1 512H466.8C483.8 512 500.1 505.3 512.1 493.3L612 393.4C630 375.4 640.1 351 640.1 325.5L640 224V160V104C640 81.9 622.1 64 600 64C577.9 64 560 81.9 560 104Z" fill="#FFE81F"/>
<path d="M410.815 42.7188C410.161 42.7205 409.681 42.1041 409.844 41.4704L420.087 1.5204C420.294 0.715415 421.335 0.498828 421.845 1.15473L452.844 40.9995C453.354 41.6554 452.888 42.6114 452.057 42.6135L410.815 42.7188Z" fill="#FFE81F"/>
<rect x="376.773" y="108.111" width="10" height="43" transform="rotate(-127.882 376.773 108.111)" fill="#FFE81F"/>
<path fill-rule="evenodd" clip-rule="evenodd" d="M218.471 160.317C213.24 164.386 212.299 171.926 216.368 177.156L231.719 196.888C235.789 202.119 243.328 203.06 248.559 198.991L442.72 47.9363C443.156 47.5972 443.235 46.9689 442.895 46.533L414.035 9.43721C413.696 9.00131 413.068 8.92286 412.632 9.26198L245.691 139.14L248.683 142.986C249.246 143.71 249.116 144.753 248.392 145.316V145.316C247.668 145.879 246.625 145.749 246.062 145.025L243.07 141.179L237.828 145.257L240.821 149.103C241.384 149.827 241.254 150.87 240.53 151.433V151.433C239.806 151.996 238.763 151.866 238.2 151.142L235.208 147.296L229.966 151.374L232.958 155.22C233.521 155.944 233.391 156.987 232.667 157.55V157.55C231.944 158.113 230.901 157.982 230.338 157.259L227.345 153.413L218.471 160.317Z" fill="#FFE81F"/>
</g>
<defs>
<clipPath id="clip0_418_10">
<rect width="640" height="512" fill="white"/>
</clipPath>
</defs>
</svg>
