<svg width="640" height="512" viewBox="0 0 640 512" fill="none" xmlns="http://www.w3.org/2000/svg">
<g clip-path="url(#clip0_417_7)">
<path d="M580 6.10019C591.875 -2.39981 610 -1.99981 621.25 7.00019L631.25 15.0002C642.5 24.0002 643 38.5002 632.375 48.0002L525.125 143.9C521.875 146.8 518.125 150 515 153.5L504.375 163.5C498.75 169 496.875 170.5 488.75 177.5L477.5 186.5C473.125 190.5 469.125 193.9 465.375 197.3L125.875 500.9C117.875 508 106.625 512 94.75 512C83.75 512 73.125 508.5 65.375 502.2L12.125 459.7C4.375 453.4 0 445 0 436.2C0 426.7 5 417.7 13.875 411.4L153.375 311.6C157.625 308.6 160.625 306.5 164.375 303.5L186.25 287.5C195 281 196.25 280 203.75 274L224.375 260C228.125 257.5 232.875 254.6 236.625 252L580 6.10019ZM540 288C544.5 288 548.375 290.4 549.625 293.8L568.125 345.5L632.75 360.3C637 361.3 640 364.4 640 368C640 371.6 637 374.7 632.75 375.7L568.125 390.5L549.625 442.2C548.375 445.6 544.5 448 540 448C535.5 448 531.625 445.6 530.375 442.2L511.875 390.5L447.25 375.7C443 374.7 440 371.6 440 368C440 364.4 443 361.3 447.25 360.3L511.875 345.5L530.375 293.8C531.625 290.4 535.5 288 540 288ZM143.75 41.0002C148.375 41.0002 152.375 43.5002 153.5 47.1002L162 74.4002L196.125 81.2002C200.625 82.1002 203.75 85.3002 203.75 89.0002C203.75 92.7002 200.625 95.9002 196.125 96.8002L162 103.6L153.5 130.9C152.375 134.5 148.375 137 143.75 137C139.125 137 135.125 134.5 134 130.9L125.5 103.6L91.375 96.8002C86.875 95.9002 83.75 92.7002 83.75 89.0002C83.75 85.3002 86.875 82.1002 91.375 81.2002L125.5 74.4002L134 47.1002C135.125 43.5002 139.125 41.0002 143.75 41.0002Z" fill="#FFE81F"/>
</g>
<defs>
<clipPath id="clip0_417_7">
<rect width="640" height="512" fill="white"/>
</clipPath>
</defs>
</svg>
