<svg width="471" height="512" viewBox="0 0 471 512" fill="none" xmlns="http://www.w3.org/2000/svg">
<path d="M85.1113 305.612V155.278C85.1113 135.343 93.0307 116.224 107.127 102.127C121.224 88.0306 140.343 80.1112 160.278 80.1112C180.214 80.1112 199.333 88.0306 213.429 102.127C227.526 116.224 235.445 135.343 235.445 155.278V355.723C235.445 375.659 243.364 394.778 257.461 408.874C271.557 422.971 290.676 430.89 310.612 430.89C330.547 430.89 349.666 422.971 363.763 408.874C377.86 394.778 385.779 375.659 385.779 355.723V205.389" stroke="#FFE81F" stroke-width="60" stroke-linecap="round" stroke-linejoin="round"/>
<path d="M335.668 80.1113C335.668 66.8209 340.947 54.0749 350.345 44.6772C359.742 35.2796 372.488 30 385.779 30C399.069 30 411.815 35.2796 421.213 44.6772C430.61 54.0749 435.89 66.8209 435.89 80.1113V155.278C435.89 168.568 430.61 181.314 421.213 190.712C411.815 200.11 399.069 205.389 385.779 205.389C372.488 205.389 359.742 200.11 350.345 190.712C340.947 181.314 335.668 168.568 335.668 155.278V80.1113ZM35 355.723C35 342.433 40.2796 329.687 49.6772 320.289C59.0749 310.891 71.8209 305.612 85.1113 305.612C98.4016 305.612 111.148 310.891 120.545 320.289C129.943 329.687 135.223 342.433 135.223 355.723V430.89C135.223 444.18 129.943 456.926 120.545 466.324C111.148 475.722 98.4016 481.001 85.1113 481.001C71.8209 481.001 59.0749 475.722 49.6772 466.324C40.2796 456.926 35 444.18 35 430.89V355.723Z" stroke="#FFE81F" stroke-width="60" stroke-linecap="round" stroke-linejoin="round"/>
<rect x="358" y="45" width="56" height="132" fill="#FFE81F"/>
</svg>
