<svg width="616" height="435" viewBox="0 0 616 435" fill="none" xmlns="http://www.w3.org/2000/svg">
<g clip-path="url(#clip0_303_4)">
<path d="M427.718 51.1497L426.822 52.8742L346.888 207.144L426.822 318.763L427.718 320.007L336.314 344.499L301.365 295.416L266.237 363.276L174.833 387.768L175.729 386.043L255.663 231.588L175.729 120.154L174.833 118.91L266.237 94.4185L301.365 143.453L336.314 75.6414L427.718 51.1497ZM427.682 51.1593L615.868 0.73506V75.3249L499.91 106.396V128.847L597.767 102.626V177.402L499.91 203.622V300.663L427.682 320.017V51.1593Z" fill="white"/>
<path d="M406.172 325.781L360.29 338.075L198.498 112.423L241.964 100.776L406.172 325.781Z" fill="white"/>
<path d="M198.622 380.885L243.805 368.416L401.152 60.0675L358.347 71.8804L198.622 380.885Z" fill="white"/>
<path d="M175.282 193.38L83.5186 217.968C84.0563 218.566 112.195 241.27 167.575 286.177C175.102 295.664 178.866 306.716 178.866 319.519C178.866 337.517 172.772 354.921 160.764 371.498C148.577 388.123 134.06 398.693 117.213 403.207L0 434.614V359.839L96.602 333.954L12.9042 266.02C5.19751 258.436 1.4338 247.198 1.4338 232.54C1.4338 214.357 7.34821 197 19.3562 180.609C31.3643 164.032 45.8815 153.463 62.9078 148.9L175.282 118.79V193.38Z" fill="white"/>
</g>
<defs>
<clipPath id="clip0_303_4">
<rect width="637" height="269" fill="white" transform="matrix(0.965926 -0.258819 0 1 0 165.614)"/>
</clipPath>
</defs>
</svg>
